<svg width="250" height="87" viewBox="0 0 250 87" fill="none" xmlns="http://www.w3.org/2000/svg">
<path d="M10.8196 3.23126C0.515743 3.23126 -4.63618 17.3313 31.4273 43.1813C-4.63618 69.0313 0.515743 83.1313 10.8196 83.1313" stroke="#ffffff" stroke-width="6.4625" stroke-linecap="round"/>
<path d="M52.0349 3.23126C62.3388 3.23126 67.4907 17.3313 31.4272 43.1813C67.4907 69.0313 62.3388 83.1313 52.0349 83.1313" stroke="#ffffff" stroke-width="6.4625" stroke-linecap="round"/>
<path d="M31.4273 49.6437C35.3396 49.6437 38.5112 46.7503 38.5112 43.1812C38.5112 39.612 35.3396 36.7187 31.4273 36.7187C27.515 36.7187 24.3434 39.612 24.3434 43.1812C24.3434 46.7503 27.515 49.6437 31.4273 49.6437Z" fill="#E8654A"/>
<path d="M98.3038 36.9999C98.1168 36.3501 97.8542 35.776 97.516 35.2775C97.1777 34.7701 96.7638 34.3428 96.2742 33.9957C95.7935 33.6396 95.2416 33.3681 94.6185 33.1812C94.0043 32.9942 93.3234 32.9008 92.5756 32.9008C91.1781 32.9008 89.9497 33.2479 88.8904 33.9422C87.84 34.6366 87.0211 35.6469 86.4336 36.9732C85.8461 38.2906 85.5523 39.9018 85.5523 41.8067C85.5523 43.7117 85.8416 45.3317 86.4202 46.667C86.9988 48.0022 87.8178 49.0214 88.8771 49.7246C89.9363 50.4189 91.187 50.7661 92.6291 50.7661C93.9376 50.7661 95.0547 50.5347 95.9805 50.0718C96.9151 49.6 97.6273 48.9368 98.1168 48.0823C98.6153 47.2278 98.8646 46.2174 98.8646 45.0513L100.04 45.2249H92.9896V40.8721H104.432V44.317C104.432 46.7204 103.925 48.7855 102.91 50.5124C101.896 52.2304 100.498 53.5567 98.7177 54.4914C96.9374 55.4171 94.8989 55.88 92.6023 55.88C90.0387 55.88 87.7866 55.3148 85.8461 54.1843C83.9056 53.0449 82.3923 51.4293 81.3063 49.3374C80.2292 47.2367 79.6907 44.7442 79.6907 41.8601C79.6907 39.6437 80.0112 37.6675 80.6521 35.9317C81.3019 34.187 82.2098 32.7094 83.3759 31.4988C84.542 30.2882 85.8995 29.3669 87.4484 28.7349C88.9972 28.1029 90.6752 27.7868 92.4822 27.7868C94.031 27.7868 95.4731 28.0138 96.8083 28.4678C98.1435 28.9129 99.3274 29.5449 100.36 30.3638C101.401 31.1828 102.252 32.1575 102.91 33.288C103.569 34.4096 103.992 35.6469 104.179 36.9999H98.3038ZM109.954 55.5062V34.9971H115.642V55.5062H109.954ZM112.811 32.3533C111.965 32.3533 111.24 32.0729 110.635 31.5121C110.038 30.9424 109.74 30.2615 109.74 29.4692C109.74 28.6859 110.038 28.0138 110.635 27.453C111.24 26.8833 111.965 26.5985 112.811 26.5985C113.657 26.5985 114.378 26.8833 114.974 27.453C115.579 28.0138 115.882 28.6859 115.882 29.4692C115.882 30.2615 115.579 30.9424 114.974 31.5121C114.378 32.0729 113.657 32.3533 112.811 32.3533ZM131.107 34.9971V39.2698H118.756V34.9971H131.107ZM121.56 30.0834H127.248V49.2039C127.248 49.7291 127.328 50.1386 127.488 50.4323C127.649 50.7171 127.871 50.9174 128.156 51.0332C128.45 51.1489 128.788 51.2067 129.171 51.2067C129.438 51.2067 129.705 51.1845 129.972 51.14C130.239 51.0866 130.444 51.0465 130.586 51.0198L131.481 55.2525C131.196 55.3415 130.795 55.4439 130.279 55.5596C129.763 55.6842 129.135 55.7599 128.396 55.7866C127.026 55.84 125.824 55.6575 124.791 55.2391C123.768 54.8207 122.971 54.1709 122.401 53.2897C121.832 52.4084 121.551 51.2957 121.56 49.9516V30.0834Z" fill="#ffffff"/>
<path d="M140.706 55.5062V28.1607H146.488V50.7394H158.211V55.5062H140.706ZM175.085 46.7738V34.9971H180.773V55.5062H175.312V51.7809H175.099C174.636 52.9826 173.866 53.9484 172.789 54.6783C171.72 55.4082 170.416 55.7732 168.876 55.7732C167.506 55.7732 166.299 55.4617 165.258 54.8386C164.216 54.2154 163.402 53.3297 162.814 52.1814C162.236 51.0332 161.942 49.6579 161.933 48.0556V34.9971H167.621V47.0408C167.63 48.2514 167.955 49.2083 168.596 49.9116C169.237 50.6148 170.096 50.9664 171.173 50.9664C171.858 50.9664 172.499 50.8106 173.096 50.4991C173.692 50.1786 174.173 49.7068 174.538 49.0837C174.912 48.4606 175.094 47.6906 175.085 46.7738ZM185.323 55.5062V34.9971H190.744V38.6155H190.984C191.412 37.4138 192.124 36.4658 193.121 35.7715C194.118 35.0772 195.311 34.73 196.699 34.73C198.106 34.73 199.303 35.0816 200.291 35.7849C201.279 36.4792 201.938 37.4227 202.267 38.6155H202.481C202.899 37.4405 203.656 36.5014 204.751 35.7982C205.854 35.0861 207.158 34.73 208.663 34.73C210.577 34.73 212.13 35.3398 213.323 36.5593C214.524 37.7699 215.125 39.4879 215.125 41.7133V55.5062H209.451V42.8349C209.451 41.6955 209.148 40.8409 208.543 40.2712C207.937 39.7015 207.181 39.4167 206.273 39.4167C205.24 39.4167 204.435 39.746 203.856 40.4047C203.277 41.0546 202.988 41.9136 202.988 42.9817V55.5062H197.474V42.7147C197.474 41.7088 197.184 40.9077 196.606 40.3113C196.036 39.7149 195.284 39.4167 194.349 39.4167C193.717 39.4167 193.147 39.5769 192.64 39.8974C192.142 40.2089 191.745 40.6495 191.452 41.2192C191.158 41.78 191.011 42.4387 191.011 43.1954V55.5062H185.323ZM225.467 55.8934C224.158 55.8934 222.992 55.6664 221.968 55.2124C220.945 54.7495 220.135 54.0686 219.538 53.1695C218.951 52.2616 218.657 51.1311 218.657 49.778C218.657 48.6386 218.866 47.6817 219.285 46.9073C219.703 46.1329 220.273 45.5098 220.994 45.038C221.715 44.5662 222.534 44.2101 223.45 43.9698C224.376 43.7295 225.346 43.5603 226.361 43.4624C227.554 43.3378 228.515 43.2221 229.245 43.1153C229.975 42.9995 230.505 42.8304 230.834 42.6079C231.164 42.3853 231.328 42.056 231.328 41.6198V41.5397C231.328 40.694 231.061 40.0398 230.527 39.5769C230.002 39.114 229.254 38.8826 228.284 38.8826C227.26 38.8826 226.446 39.1096 225.841 39.5636C225.235 40.0086 224.835 40.5694 224.639 41.2459L219.378 40.8187C219.645 39.5725 220.17 38.4954 220.954 37.5874C221.737 36.6706 222.747 35.9673 223.985 35.4778C225.231 34.9793 226.673 34.73 228.311 34.73C229.45 34.73 230.541 34.8636 231.582 35.1306C232.632 35.3976 233.563 35.8116 234.373 36.3724C235.192 36.9332 235.837 37.6542 236.309 38.5354C236.78 39.4078 237.016 40.4537 237.016 41.6732V55.5062H231.622V52.6621H231.462C231.132 53.303 230.692 53.8683 230.14 54.3579C229.588 54.8386 228.925 55.2169 228.15 55.4928C227.376 55.7599 226.481 55.8934 225.467 55.8934ZM227.096 51.9678C227.932 51.9678 228.671 51.8031 229.312 51.4738C229.953 51.1355 230.456 50.6815 230.821 50.1118C231.186 49.5421 231.368 48.8968 231.368 48.1758V45.9993C231.19 46.1151 230.946 46.2219 230.634 46.3198C230.331 46.4088 229.989 46.4934 229.606 46.5735C229.223 46.6447 228.84 46.7115 228.458 46.7738C228.075 46.8272 227.728 46.8761 227.416 46.9207C226.748 47.0186 226.165 47.1743 225.667 47.388C225.168 47.6016 224.781 47.8909 224.505 48.2559C224.229 48.6119 224.091 49.057 224.091 49.5911C224.091 50.3655 224.372 50.9575 224.933 51.367C225.502 51.7675 226.223 51.9678 227.096 51.9678Z" fill="#E8654A"/>
</svg>
